<svg xmlns="http://www.w3.org/2000/svg" xmlns:xlink="http://www.w3.org/1999/xlink" width="40" zoomAndPan="magnify" viewBox="0 0 30 30.000001" height="40" preserveAspectRatio="xMidYMid meet" version="1.0"><defs><clipPath id="7196cf81e9"><path d="M 5.03125 0 L 24.628906 0 L 24.628906 29 L 5.03125 29 Z M 5.03125 0 " clip-rule="nonzero"/></clipPath><clipPath id="58022a753c"><path d="M 14.269531 18.546875 L 16.3125 18.546875 L 16.3125 20.347656 L 14.269531 20.347656 Z M 14.269531 18.546875 " clip-rule="nonzero"/></clipPath><clipPath id="5d1a3787f7"><path d="M 16.304688 19.234375 C 15.433594 20.683594 14.566406 20.394531 14.347656 20.105469 C 14.203125 19.816406 14.347656 18.871094 14.636719 18.652344 C 14.925781 18.433594 16.089844 18.726562 16.089844 18.726562 " clip-rule="nonzero"/></clipPath><clipPath id="b6bf770d58"><path d="M 12.59375 17.40625 L 18.035156 17.40625 L 18.035156 20.46875 L 12.59375 20.46875 Z M 12.59375 17.40625 " clip-rule="nonzero"/></clipPath><clipPath id="390dbb05c2"><path d="M 13.695312 17.417969 C 18.195312 18 18.195312 18.945312 17.832031 19.378906 C 17.394531 19.960938 14.78125 20.175781 14.855469 20.324219 C 14.855469 20.394531 16.304688 20.539062 16.453125 20.324219 C 16.597656 20.03125 15.21875 19.089844 15.289062 18.652344 C 15.363281 18.289062 16.089844 17.925781 16.453125 17.855469 C 16.816406 17.855469 17.324219 18.074219 17.46875 18.433594 C 17.613281 18.796875 17.105469 20.105469 16.742188 20.25 C 16.453125 20.394531 15.871094 20.25 15.652344 19.960938 C 15.363281 19.667969 15.144531 18.796875 15.363281 18.507812 C 15.652344 18.21875 17.03125 18 17.394531 18.289062 C 17.613281 18.507812 17.613281 19.453125 17.46875 19.742188 C 17.25 20.03125 16.742188 20.324219 16.453125 20.324219 C 16.015625 20.25 15.21875 19.378906 15.21875 18.945312 C 15.289062 18.582031 16.523438 18.074219 16.453125 17.855469 C 16.378906 17.710938 14.78125 17.925781 14.78125 17.855469 C 14.78125 17.855469 17.46875 17.203125 17.832031 17.636719 C 18.195312 17.925781 18.046875 19.160156 17.613281 19.523438 C 17.03125 20.105469 14.566406 19.960938 13.695312 19.597656 C 13.183594 19.453125 12.605469 19.015625 12.605469 18.652344 C 12.53125 18.289062 13.695312 17.417969 13.695312 17.417969 " clip-rule="nonzero"/></clipPath></defs><g clip-path="url(#7196cf81e9)"><path fill="#05427f" d="M 14.996094 0.0078125 C 20.496094 0.0078125 24.957031 4.46875 24.957031 9.972656 C 24.957031 11.886719 24.417969 13.671875 23.480469 15.191406 C 22.359375 17.050781 21.234375 18.910156 20.113281 20.773438 C 18.746094 22.996094 17.640625 24.792969 16.273438 27.015625 C 15.066406 28.976562 14.984375 29.023438 13.773438 27.054688 C 12.414062 24.84375 11.269531 22.984375 9.910156 20.773438 C 8.789062 18.933594 7.667969 17.09375 6.546875 15.253906 C 5.589844 13.722656 5.03125 11.910156 5.03125 9.972656 C 5.03125 4.46875 9.492188 0.0078125 14.996094 0.0078125 Z M 14.996094 5.003906 C 17.460938 5.003906 19.460938 7.003906 19.460938 9.46875 C 19.460938 11.9375 17.460938 13.9375 14.996094 13.9375 C 12.527344 13.9375 10.527344 11.9375 10.527344 9.46875 C 10.527344 7.003906 12.527344 5.003906 14.996094 5.003906 Z M 14.996094 5.003906 " fill-opacity="1" fill-rule="evenodd"/></g><g clip-path="url(#58022a753c)"><g clip-path="url(#5d1a3787f7)"><path fill="#05427f" d="M 11.445312 15.75 L 19.289062 15.75 L 19.289062 23.445312 L 11.445312 23.445312 Z M 11.445312 15.75 " fill-opacity="1" fill-rule="nonzero"/></g></g><g clip-path="url(#b6bf770d58)"><g clip-path="url(#390dbb05c2)"><path fill="#05427f" d="M 9.703125 14.515625 L 20.792969 14.515625 L 20.792969 23.226562 L 9.703125 23.226562 Z M 9.703125 14.515625 " fill-opacity="1" fill-rule="nonzero"/></g></g></svg>