<svg xmlns="http://www.w3.org/2000/svg" xmlns:xlink="http://www.w3.org/1999/xlink" width="40" zoomAndPan="magnify" viewBox="0 0 30 30.000001" height="40" preserveAspectRatio="xMidYMid meet" version="1.0"><defs><clipPath id="e4b6e952bf"><path d="M 0.484375 0 L 29.515625 0 L 29.515625 29.03125 L 0.484375 29.03125 Z M 0.484375 0 " clip-rule="nonzero"/></clipPath><clipPath id="62c4de4267"><path d="M 2 12.007812 L 4.484375 12.007812 L 4.484375 17.894531 L 2 17.894531 Z M 2 12.007812 " clip-rule="nonzero"/></clipPath><clipPath id="64b52d32bf"><path d="M 4.476562 13.136719 C 3.96875 17.855469 3.316406 17.925781 2.953125 17.855469 C 2.660156 17.710938 2.226562 16.984375 2.226562 16.621094 C 2.296875 16.257812 3.242188 15.53125 3.605469 15.675781 C 3.96875 15.75 4.476562 16.984375 4.332031 17.347656 C 4.257812 17.636719 3.460938 17.925781 3.097656 17.855469 C 2.734375 17.78125 2.445312 17.273438 2.226562 16.765625 C 1.933594 15.894531 1.933594 13.355469 2.371094 12.628906 C 2.660156 12.195312 3.167969 11.976562 3.53125 12.046875 C 3.894531 12.121094 4.476562 13.136719 4.476562 13.136719 " clip-rule="nonzero"/></clipPath></defs><g clip-path="url(#e4b6e952bf)"><path fill="#05427f" d="M 15 0 C 14.046875 0 13.101562 0.09375 12.167969 0.277344 C 11.234375 0.464844 10.324219 0.738281 9.445312 1.105469 C 8.5625 1.46875 7.726562 1.917969 6.933594 2.445312 C 6.144531 2.976562 5.410156 3.578125 4.734375 4.25 C 4.0625 4.925781 3.460938 5.660156 2.929688 6.453125 C 2.402344 7.242188 1.953125 8.082031 1.589844 8.960938 C 1.222656 9.839844 0.949219 10.75 0.761719 11.683594 C 0.578125 12.617188 0.484375 13.5625 0.484375 14.515625 C 0.484375 15.46875 0.578125 16.414062 0.761719 17.347656 C 0.949219 18.28125 1.222656 19.191406 1.589844 20.070312 C 1.953125 20.953125 2.402344 21.789062 2.929688 22.582031 C 3.460938 23.375 4.0625 24.105469 4.734375 24.78125 C 5.410156 25.453125 6.144531 26.054688 6.933594 26.585938 C 7.726562 27.117188 8.5625 27.5625 9.445312 27.925781 C 10.324219 28.292969 11.234375 28.566406 12.167969 28.753906 C 13.101562 28.9375 14.046875 29.03125 15 29.03125 C 15.953125 29.03125 16.898438 28.9375 17.832031 28.753906 C 18.765625 28.566406 19.675781 28.292969 20.554688 27.925781 C 21.4375 27.5625 22.273438 27.117188 23.066406 26.585938 C 23.855469 26.054688 24.589844 25.453125 25.265625 24.78125 C 25.9375 24.105469 26.539062 23.375 27.070312 22.582031 C 27.597656 21.789062 28.046875 20.953125 28.410156 20.070312 C 28.777344 19.191406 29.050781 18.28125 29.238281 17.347656 C 29.421875 16.414062 29.515625 15.46875 29.515625 14.515625 C 29.515625 13.5625 29.421875 12.617188 29.238281 11.683594 C 29.050781 10.75 28.777344 9.84375 28.410156 8.960938 C 28.046875 8.082031 27.597656 7.246094 27.070312 6.453125 C 26.539062 5.660156 25.9375 4.925781 25.265625 4.253906 C 24.589844 3.578125 23.855469 2.976562 23.0625 2.445312 C 22.273438 1.917969 21.433594 1.46875 20.554688 1.105469 C 19.675781 0.742188 18.765625 0.464844 17.832031 0.277344 C 16.898438 0.09375 15.953125 0 15 0 Z M 8.3125 7.351562 L 21.6875 7.351562 C 21.972656 7.351562 22.25 7.402344 22.515625 7.5 C 22.785156 7.601562 23.027344 7.742188 23.242188 7.929688 C 23.457031 8.117188 23.636719 8.332031 23.773438 8.582031 C 23.914062 8.832031 24.003906 9.097656 24.046875 9.382812 C 23.855469 9.484375 16.507812 13.722656 16.019531 14 C 15.703125 14.179688 15.363281 14.269531 15 14.269531 C 14.636719 14.269531 14.296875 14.179688 13.980469 14 C 13.503906 13.726562 6.136719 9.53125 5.953125 9.417969 C 5.992188 9.132812 6.082031 8.863281 6.214844 8.609375 C 6.351562 8.355469 6.53125 8.132812 6.746094 7.941406 C 6.964844 7.753906 7.207031 7.605469 7.476562 7.503906 C 7.746094 7.402344 8.023438 7.351562 8.3125 7.351562 Z M 24.074219 19.292969 C 24.070312 19.609375 24.011719 19.914062 23.890625 20.207031 C 23.769531 20.496094 23.597656 20.753906 23.371094 20.980469 C 23.148438 21.203125 22.890625 21.375 22.597656 21.496094 C 22.308594 21.617188 22.003906 21.679688 21.6875 21.679688 L 8.3125 21.679688 C 7.996094 21.679688 7.691406 21.617188 7.402344 21.496094 C 7.109375 21.375 6.851562 21.203125 6.628906 20.980469 C 6.402344 20.753906 6.230469 20.496094 6.109375 20.207031 C 5.988281 19.914062 5.929688 19.609375 5.925781 19.292969 L 5.925781 10.5 L 13.511719 14.828125 C 13.972656 15.09375 14.472656 15.222656 15.003906 15.222656 C 15.535156 15.222656 16.03125 15.09375 16.492188 14.828125 L 24.074219 10.464844 Z M 24.074219 19.292969 " fill-opacity="1" fill-rule="nonzero"/></g><g clip-path="url(#62c4de4267)"><g clip-path="url(#64b52d32bf)"><path fill="#05427f" d="M -0.675781 9.144531 L 7.378906 9.144531 L 7.378906 20.820312 L -0.675781 20.820312 Z M -0.675781 9.144531 " fill-opacity="1" fill-rule="nonzero"/></g></g></svg>