<svg xmlns="http://www.w3.org/2000/svg" xmlns:xlink="http://www.w3.org/1999/xlink" width="40" zoomAndPan="magnify" viewBox="0 0 30 30.000001" height="40" preserveAspectRatio="xMidYMid meet" version="1.0"><defs><clipPath id="3f35dcc162"><path d="M 0.484375 0 L 29.515625 0 L 29.515625 29.03125 L 0.484375 29.03125 Z M 0.484375 0 " clip-rule="nonzero"/></clipPath><clipPath id="5ae8bad013"><path d="M 3.703125 13.199219 L 7.097656 13.199219 L 7.097656 19.09375 L 3.703125 19.09375 Z M 3.703125 13.199219 " clip-rule="nonzero"/></clipPath><clipPath id="5016346c4e"><path d="M 5.855469 13.863281 C 6.945312 18.726562 6.289062 19.089844 5.925781 19.089844 C 5.566406 19.015625 4.984375 18.582031 4.910156 18.21875 C 4.839844 17.78125 5.417969 16.839844 5.78125 16.839844 C 6.144531 16.765625 7.160156 17.78125 7.089844 18.144531 C 7.089844 18.507812 6.433594 19.015625 6.074219 19.089844 C 5.710938 19.089844 5.273438 18.726562 4.910156 18.289062 C 4.332031 17.492188 3.53125 14.804688 3.75 13.933594 C 3.894531 13.5 4.402344 13.210938 4.765625 13.210938 C 5.128906 13.136719 5.855469 13.863281 5.855469 13.863281 " clip-rule="nonzero"/></clipPath></defs><g clip-path="url(#3f35dcc162)"><path fill="#05427f" d="M 15 0 C 6.980469 0 0.484375 6.5 0.484375 14.515625 C 0.484375 22.535156 6.980469 29.03125 15 29.03125 C 23.019531 29.03125 29.515625 22.535156 29.515625 14.515625 C 29.515625 6.5 23.019531 0 15 0 Z M 20.257812 21.847656 C 19.941406 22.152344 19.527344 22.398438 19.027344 22.585938 C 18.769531 22.683594 18.566406 22.742188 18.371094 22.765625 L 18.257812 22.78125 C 17.761719 22.832031 17.207031 22.785156 16.554688 22.640625 C 15.261719 22.363281 14.0625 21.582031 12.878906 20.25 C 12.703125 20.074219 11.355469 18.726562 10.496094 16.824219 C 9.628906 14.894531 9.523438 13.007812 9.511719 12.796875 C 9.300781 10.984375 9.519531 9.566406 10.15625 8.417969 C 10.507812 7.789062 10.878906 7.3125 11.273438 6.972656 C 11.414062 6.847656 11.597656 6.730469 11.84375 6.601562 C 12.304688 6.367188 12.753906 6.222656 13.175781 6.179688 C 13.441406 6.15625 14.335938 6.128906 14.453125 6.832031 L 14.570312 8.042969 C 14.621094 8.578125 14.738281 9.9375 14.738281 9.9375 C 14.824219 10.800781 14.722656 11.253906 13.886719 11.371094 C 13.824219 11.375 13.761719 11.367188 13.683594 11.367188 C 13.496094 11.347656 13.324219 11.335938 13.175781 11.335938 L 12.566406 11.34375 L 12.582031 11.953125 C 12.59375 12.632812 12.835938 14.390625 13.355469 15.546875 C 13.832031 16.609375 14.941406 17.972656 15.527344 18.507812 L 15.976562 18.917969 L 16.382812 18.460938 C 16.476562 18.351562 16.578125 18.222656 16.636719 18.144531 C 16.738281 18.007812 16.785156 17.941406 16.828125 17.90625 C 17.042969 17.722656 17.242188 17.621094 17.4375 17.601562 C 17.824219 17.566406 18.117188 17.84375 18.453125 18.21875 L 20.582031 20.488281 C 21.023438 21.015625 20.5 21.613281 20.257812 21.847656 Z M 20.257812 21.847656 " fill-opacity="1" fill-rule="nonzero"/></g><g clip-path="url(#5ae8bad013)"><g clip-path="url(#5016346c4e)"><path fill="#05427f" d="M 0.847656 10.304688 L 9.992188 10.304688 L 9.992188 21.988281 L 0.847656 21.988281 Z M 0.847656 10.304688 " fill-opacity="1" fill-rule="nonzero"/></g></g></svg>