<svg xmlns="http://www.w3.org/2000/svg" xmlns:xlink="http://www.w3.org/1999/xlink" width="40" zoomAndPan="magnify" viewBox="0 0 30 30.000001" height="40" preserveAspectRatio="xMidYMid meet" version="1.0"><defs><clipPath id="e636ec4693"><path d="M 0.484375 0 L 29.515625 0 L 29.515625 29.03125 L 0.484375 29.03125 Z M 0.484375 0 " clip-rule="nonzero"/></clipPath><clipPath id="f47bb7459e"><path d="M 2.800781 18.835938 L 4.84375 18.835938 L 4.84375 20.636719 L 2.800781 20.636719 Z M 2.800781 18.835938 " clip-rule="nonzero"/></clipPath><clipPath id="5d83dc60e9"><path d="M 4.839844 19.523438 C 3.96875 20.976562 3.097656 20.683594 2.878906 20.394531 C 2.734375 20.105469 2.878906 19.160156 3.167969 18.945312 C 3.460938 18.726562 4.621094 19.015625 4.621094 19.015625 " clip-rule="nonzero"/></clipPath><clipPath id="875aabe5bf"><path d="M 2 13.042969 L 4.421875 13.042969 L 4.421875 17.433594 L 2 17.433594 Z M 2 13.042969 " clip-rule="nonzero"/></clipPath><clipPath id="e8f98364ad"><path d="M 2.007812 16.332031 C 2.804688 12.992188 3.316406 12.992188 3.605469 13.066406 C 3.96875 13.210938 4.402344 13.863281 4.332031 14.226562 C 4.257812 14.589844 3.097656 15.316406 2.734375 15.167969 C 2.445312 15.023438 2.226562 13.644531 2.515625 13.355469 C 2.660156 13.066406 3.53125 13.066406 3.824219 13.210938 C 4.113281 13.355469 4.257812 13.71875 4.332031 14.082031 C 4.476562 14.804688 4.402344 16.621094 3.894531 17.054688 C 3.675781 17.347656 3.023438 17.492188 2.734375 17.347656 C 2.371094 17.273438 2.007812 16.332031 2.007812 16.332031 " clip-rule="nonzero"/></clipPath></defs><path fill="#05427f" d="M 11.96875 17.816406 C 12.515625 21.035156 13.808594 23.09375 15 23.09375 C 16.191406 23.09375 17.484375 21.035156 18.03125 17.816406 Z M 11.96875 17.816406 " fill-opacity="1" fill-rule="nonzero"/><path fill="#05427f" d="M 10.382812 14.515625 C 10.382812 13.832031 10.410156 13.171875 10.46875 12.535156 L 6.671875 12.535156 C 6.632812 12.703125 6.59375 12.867188 6.5625 13.035156 C 6.542969 13.144531 6.519531 13.257812 6.503906 13.367188 C 6.394531 14.132812 6.394531 14.898438 6.503906 15.664062 C 6.519531 15.777344 6.542969 15.890625 6.5625 16.003906 C 6.59375 16.167969 6.632812 16.332031 6.671875 16.496094 L 10.46875 16.496094 C 10.410156 15.859375 10.382812 15.199219 10.382812 14.515625 Z M 10.382812 14.515625 " fill-opacity="1" fill-rule="nonzero"/><path fill="#05427f" d="M 12.316406 6.363281 C 11.132812 6.753906 10.089844 7.371094 9.175781 8.21875 C 8.265625 9.066406 7.578125 10.066406 7.105469 11.21875 L 10.628906 11.21875 C 10.84375 9.476562 11.40625 7.859375 12.316406 6.363281 Z M 12.316406 6.363281 " fill-opacity="1" fill-rule="nonzero"/><path fill="#05427f" d="M 7.105469 17.816406 C 7.578125 18.96875 8.265625 19.96875 9.175781 20.816406 C 10.089844 21.664062 11.132812 22.28125 12.316406 22.667969 C 11.40625 21.171875 10.84375 19.554688 10.628906 17.816406 Z M 7.105469 17.816406 " fill-opacity="1" fill-rule="nonzero"/><path fill="#05427f" d="M 22.894531 11.21875 C 22.421875 10.066406 21.734375 9.066406 20.824219 8.21875 C 19.910156 7.371094 18.867188 6.753906 17.683594 6.363281 C 18.59375 7.859375 19.15625 9.476562 19.371094 11.21875 Z M 22.894531 11.21875 " fill-opacity="1" fill-rule="nonzero"/><path fill="#05427f" d="M 18.03125 11.21875 C 17.484375 7.996094 16.191406 5.9375 15 5.9375 C 13.808594 5.9375 12.515625 7.996094 11.96875 11.21875 Z M 18.03125 11.21875 " fill-opacity="1" fill-rule="nonzero"/><path fill="#05427f" d="M 11.699219 14.515625 C 11.699219 15.207031 11.734375 15.867188 11.796875 16.496094 L 18.203125 16.496094 C 18.265625 15.867188 18.300781 15.207031 18.300781 14.515625 C 18.300781 13.824219 18.265625 13.164062 18.203125 12.535156 L 11.796875 12.535156 C 11.734375 13.164062 11.699219 13.824219 11.699219 14.515625 Z M 11.699219 14.515625 " fill-opacity="1" fill-rule="nonzero"/><path fill="#05427f" d="M 17.683594 22.667969 C 18.867188 22.28125 19.910156 21.664062 20.824219 20.816406 C 21.734375 19.96875 22.421875 18.96875 22.894531 17.816406 L 19.371094 17.816406 C 19.15625 19.554688 18.59375 21.171875 17.683594 22.667969 Z M 17.683594 22.667969 " fill-opacity="1" fill-rule="nonzero"/><g clip-path="url(#e636ec4693)"><path fill="#05427f" d="M 15 0 C 14.046875 0 13.101562 0.09375 12.167969 0.277344 C 11.234375 0.464844 10.324219 0.738281 9.445312 1.105469 C 8.5625 1.46875 7.726562 1.917969 6.933594 2.445312 C 6.144531 2.976562 5.410156 3.578125 4.734375 4.25 C 4.0625 4.925781 3.460938 5.660156 2.929688 6.453125 C 2.402344 7.242188 1.953125 8.082031 1.589844 8.960938 C 1.222656 9.839844 0.949219 10.75 0.761719 11.683594 C 0.578125 12.617188 0.484375 13.5625 0.484375 14.515625 C 0.484375 15.46875 0.578125 16.414062 0.761719 17.347656 C 0.949219 18.28125 1.222656 19.191406 1.589844 20.070312 C 1.953125 20.953125 2.402344 21.789062 2.929688 22.582031 C 3.460938 23.375 4.0625 24.105469 4.734375 24.78125 C 5.410156 25.453125 6.144531 26.054688 6.933594 26.585938 C 7.726562 27.117188 8.5625 27.5625 9.445312 27.925781 C 10.324219 28.292969 11.234375 28.566406 12.167969 28.753906 C 13.101562 28.9375 14.046875 29.03125 15 29.03125 C 15.953125 29.03125 16.898438 28.9375 17.832031 28.753906 C 18.765625 28.566406 19.675781 28.292969 20.554688 27.925781 C 21.4375 27.5625 22.273438 27.117188 23.066406 26.585938 C 23.855469 26.054688 24.589844 25.453125 25.265625 24.78125 C 25.9375 24.105469 26.539062 23.375 27.070312 22.582031 C 27.597656 21.789062 28.046875 20.953125 28.410156 20.070312 C 28.777344 19.191406 29.050781 18.28125 29.238281 17.347656 C 29.421875 16.414062 29.515625 15.46875 29.515625 14.515625 C 29.515625 13.5625 29.421875 12.617188 29.238281 11.683594 C 29.050781 10.75 28.777344 9.839844 28.410156 8.960938 C 28.046875 8.082031 27.597656 7.242188 27.070312 6.453125 C 26.539062 5.660156 25.9375 4.925781 25.265625 4.25 C 24.589844 3.578125 23.855469 2.976562 23.066406 2.445312 C 22.273438 1.917969 21.4375 1.46875 20.554688 1.105469 C 19.675781 0.738281 18.765625 0.464844 17.832031 0.277344 C 16.898438 0.09375 15.953125 0 15 0 Z M 24.484375 17.347656 C 24.335938 17.851562 24.144531 18.34375 23.914062 18.820312 C 23.683594 19.296875 23.414062 19.753906 23.113281 20.1875 C 22.808594 20.621094 22.472656 21.027344 22.105469 21.410156 C 21.734375 21.789062 21.339844 22.136719 20.914062 22.453125 C 20.488281 22.769531 20.042969 23.050781 19.574219 23.292969 C 19.101562 23.539062 18.617188 23.742188 18.113281 23.910156 C 17.613281 24.078125 17.097656 24.203125 16.578125 24.285156 C 16.054688 24.371094 15.527344 24.414062 15 24.414062 C 14.46875 24.414062 13.941406 24.371094 13.421875 24.285156 C 12.898438 24.203125 12.386719 24.078125 11.882812 23.910156 C 11.378906 23.742188 10.894531 23.539062 10.425781 23.292969 C 9.953125 23.046875 9.507812 22.769531 9.082031 22.453125 C 8.660156 22.136719 8.261719 21.785156 7.894531 21.40625 C 7.523438 21.027344 7.1875 20.621094 6.886719 20.1875 C 6.582031 19.75 6.316406 19.296875 6.085938 18.820312 C 5.855469 18.34375 5.664062 17.851562 5.511719 17.34375 C 5.402344 16.976562 5.316406 16.601562 5.25 16.222656 C 5.183594 15.84375 5.136719 15.464844 5.117188 15.082031 C 5.09375 14.699219 5.09375 14.3125 5.117188 13.929688 C 5.140625 13.546875 5.183594 13.167969 5.253906 12.789062 C 5.320312 12.410156 5.410156 12.039062 5.519531 11.667969 C 5.628906 11.300781 5.761719 10.941406 5.914062 10.589844 C 6.066406 10.234375 6.238281 9.894531 6.429688 9.5625 C 6.621094 9.230469 6.832031 8.910156 7.0625 8.601562 C 7.292969 8.292969 7.539062 8 7.804688 7.71875 C 8.066406 7.441406 8.347656 7.175781 8.640625 6.929688 C 8.933594 6.683594 9.242188 6.457031 9.5625 6.246094 C 9.882812 6.035156 10.214844 5.84375 10.558594 5.667969 C 10.902344 5.496094 11.253906 5.347656 11.617188 5.214844 C 11.976562 5.082031 12.34375 4.972656 12.71875 4.886719 C 13.09375 4.796875 13.46875 4.730469 13.851562 4.683594 C 14.234375 4.640625 14.617188 4.617188 15 4.617188 C 15.382812 4.617188 15.765625 4.640625 16.148438 4.6875 C 16.53125 4.730469 16.90625 4.796875 17.28125 4.886719 C 17.65625 4.976562 18.023438 5.085938 18.382812 5.214844 C 18.742188 5.347656 19.09375 5.5 19.4375 5.671875 C 19.78125 5.84375 20.113281 6.035156 20.433594 6.246094 C 20.753906 6.457031 21.0625 6.6875 21.359375 6.933594 C 21.652344 7.179688 21.929688 7.445312 22.195312 7.722656 C 22.457031 8.003906 22.703125 8.296875 22.933594 8.605469 C 23.164062 8.910156 23.375 9.230469 23.566406 9.566406 C 23.757812 9.898438 23.929688 10.238281 24.085938 10.59375 C 24.238281 10.945312 24.367188 11.304688 24.476562 11.671875 C 24.589844 12.039062 24.679688 12.414062 24.746094 12.792969 C 24.8125 13.167969 24.855469 13.550781 24.878906 13.933594 C 24.902344 14.316406 24.902344 14.699219 24.882812 15.082031 C 24.859375 15.46875 24.816406 15.847656 24.75 16.226562 C 24.683594 16.605469 24.597656 16.976562 24.484375 17.347656 Z M 24.484375 17.347656 " fill-opacity="1" fill-rule="nonzero"/></g><path fill="#05427f" d="M 23.4375 13.03125 C 23.40625 12.863281 23.367188 12.699219 23.328125 12.535156 L 19.53125 12.535156 C 19.589844 13.171875 19.617188 13.832031 19.617188 14.515625 C 19.617188 15.199219 19.589844 15.859375 19.53125 16.496094 L 23.328125 16.496094 C 23.367188 16.332031 23.40625 16.164062 23.4375 15.996094 C 23.457031 15.886719 23.480469 15.777344 23.496094 15.664062 C 23.605469 14.898438 23.605469 14.132812 23.496094 13.371094 C 23.480469 13.253906 23.457031 13.144531 23.4375 13.03125 Z M 23.4375 13.03125 " fill-opacity="1" fill-rule="nonzero"/><g clip-path="url(#f47bb7459e)"><g clip-path="url(#5d83dc60e9)"><path fill="#05427f" d="M -0.0234375 16.039062 L 7.820312 16.039062 L 7.820312 23.734375 L -0.0234375 23.734375 Z M -0.0234375 16.039062 " fill-opacity="1" fill-rule="nonzero"/></g></g><g clip-path="url(#875aabe5bf)"><g clip-path="url(#e8f98364ad)"><path fill="#05427f" d="M -0.894531 10.160156 L 7.304688 10.160156 L 7.304688 20.253906 L -0.894531 20.253906 Z M -0.894531 10.160156 " fill-opacity="1" fill-rule="nonzero"/></g></g></svg>