<svg xmlns="http://www.w3.org/2000/svg" xmlns:xlink="http://www.w3.org/1999/xlink" width="600" zoomAndPan="magnify" viewBox="0 0 450 225" height="300" preserveAspectRatio="xMidYMid meet" version="1.0"><defs><clipPath id="97b77ece1e"><path d="M 322.925781 180.585938 L 346 180.585938 L 346 201.492188 L 322.925781 201.492188 Z M 322.925781 180.585938 " clip-rule="nonzero"/></clipPath><clipPath id="f7909d2ec5"><path d="M 339.449219 193.273438 C 341.476562 191.625 341.550781 190.199219 341.101562 189.226562 C 340.574219 187.949219 338.398438 186.226562 337.125 185.699219 C 336.300781 185.398438 335.699219 185.398438 334.800781 185.699219 C 333.074219 186.226562 329.25 188.773438 328.425781 190.199219 C 327.976562 190.949219 327.824219 191.925781 328.199219 192.449219 C 328.648438 193.050781 330.675781 192.601562 331.800781 193.199219 C 333.074219 193.800781 334.125 196.050781 335.25 196.425781 C 336 196.726562 336.898438 196.050781 337.5 196.199219 C 338.023438 196.351562 338.550781 196.726562 338.851562 197.25 C 339.148438 197.851562 339.300781 198.976562 339.074219 199.648438 C 338.773438 200.324219 337.875 201.074219 337.199219 201.226562 C 336.449219 201.375 335.324219 201.074219 334.800781 200.550781 C 334.273438 199.875 334.050781 198.148438 334.351562 197.398438 C 334.648438 196.726562 335.699219 196.125 336.375 196.050781 C 337.125 195.976562 338.175781 196.425781 338.625 197.023438 C 339.074219 197.550781 339.375 198.75 339.148438 199.425781 C 338.851562 200.175781 337.574219 201 336.601562 201.300781 C 335.550781 201.523438 334.351562 201.449219 332.925781 200.925781 C 330.375 199.875 324.449219 195.523438 323.324219 193.273438 C 322.726562 192 322.949219 190.875 323.324219 189.824219 C 323.550781 188.851562 324.226562 188.175781 325.050781 187.199219 C 326.398438 185.625 329.476562 183 331.199219 181.875 C 332.324219 181.199219 333 180.824219 334.199219 180.675781 C 335.699219 180.523438 338.101562 180.675781 339.75 181.5 C 341.625 182.398438 343.726562 184.875 344.699219 186.375 C 345.375 187.351562 345.75 188.023438 345.898438 189.148438 C 346.125 190.425781 345.898438 192.601562 345.449219 193.800781 C 345 194.851562 344.324219 195.601562 343.5 196.199219 C 342.601562 196.875 341.101562 197.699219 340.199219 197.476562 C 339.449219 197.324219 338.476562 196.351562 338.398438 195.675781 C 338.25 194.925781 339.449219 193.273438 339.449219 193.273438 " clip-rule="nonzero"/></clipPath></defs><rect x="-45" width="540" fill="#ffffff" y="-22.5" height="270" fill-opacity="1"/><rect x="-45" width="540" fill="#ffffff" y="-22.5" height="270" fill-opacity="1"/><path fill="#05427f" d="M 505.695312 105.160156 L 505.695312 147.472656 C 479.789062 141.132812 452.5 138.023438 423.207031 138.023438 C 367.003906 138.023438 310.269531 149.546875 255.40625 160.691406 C 201.308594 171.683594 145.371094 183.046875 90.761719 183.046875 C 78.042969 183.046875 65.730469 182.433594 53.765625 181.199219 C 54.484375 181.203125 55.207031 181.207031 55.929688 181.207031 C 205.851562 181.207031 355.773438 81.527344 505.695312 105.160156 Z M 505.695312 105.160156 " fill-opacity="1" fill-rule="nonzero"/><path fill="#05427f" d="M 505.695312 105.160156 L 505.695312 147.472656 C 479.789062 141.132812 452.5 138.023438 423.207031 138.023438 C 367.003906 138.023438 310.269531 149.546875 255.40625 160.691406 C 201.308594 171.683594 145.371094 183.046875 90.761719 183.046875 C 78.042969 183.046875 65.730469 182.433594 53.765625 181.199219 C 54.484375 181.203125 55.207031 181.207031 55.929688 181.207031 C 205.851562 181.207031 355.773438 81.527344 505.695312 105.160156 Z M 505.695312 105.160156 " fill-opacity="1" fill-rule="nonzero"/><path fill="#016dd6" d="M 505.695312 155.628906 L 505.695312 253.277344 L -22.222656 253.277344 L -22.222656 171.824219 C 153.75 236.941406 329.71875 111.339844 505.695312 155.628906 Z M 505.695312 155.628906 " fill-opacity="1" fill-rule="nonzero"/><path fill="#008dff" d="M 395.273438 253.277344 L -22.222656 253.277344 L -22.222656 195.996094 C 116.605469 215.941406 266.339844 208.210938 395.273438 253.277344 Z M 395.273438 253.277344 " fill-opacity="1" fill-rule="nonzero"/><g clip-path="url(#97b77ece1e)"><g clip-path="url(#f7909d2ec5)"><path fill="#016dd6" d="M 320.324219 177.675781 L 348.925781 177.675781 L 348.925781 204.300781 L 320.324219 204.300781 Z M 320.324219 177.675781 " fill-opacity="1" fill-rule="nonzero"/></g></g></svg>